<svg xmlns="http://www.w3.org/2000/svg" viewBox="0 0 722.98 269.71"><path fill="#0d243a" d="M837.1,346.7H803.33a12.49,12.49,0,0,1-8.65-3.45l-67.27-71-67.2,71a12.45,12.45,0,0,1-8.64,3.45h-34a4.71,4.71,0,0,1-3.47-8.07L702.26,246l-88.12-92.63a4.71,4.71,0,0,1,3.47-8.07h33.82a12.49,12.49,0,0,1,8.65,3.45l67.33,70.79,67.11-70.79a12.45,12.45,0,0,1,8.65-3.45H837.1a4.71,4.71,0,0,1,3.48,8.07l-88,92.63,88,92.64a4.71,4.71,0,0,1-3.48,8.07" transform="translate(-120 -145.29)"></path><path fill="#0d243a" d="M164.94,214.82V229.9a.28.28,0,0,0,.27.28H329.76a5,5,0,0,1,5,5v30.41a5,5,0,0,1-5,5H165.21c-.15,0-.27,71.2-.27,71.2A4.91,4.91,0,0,1,160,346.7H125.85a4.92,4.92,0,0,1-4.92-4.92V206.41a61.12,61.12,0,0,1,61.13-61.12h147.7a5,5,0,0,1,5,5v30a5,5,0,0,1-5,5H194.48a29.55,29.55,0,0,0-29.54,29.54" transform="translate(-120 -145.29)"></path><path fill="#0d243a" d="M575.57,291.75a78.15,78.15,0,0,1-13.92,6.56,31.36,31.36,0,0,1-24.56,11.86H430.36a31.46,31.46,0,0,1-31.45-31.46V213.27A31.5,31.5,0,0,1,427,182a33.52,33.52,0,0,1,3.35-.18H537.09a31.45,31.45,0,0,1,31.45,31.45v6.81c15.43.74,28-5.26,36.49-11.23,1.33-.92,2.55-1.84,3.69-2.72V205a59.7,59.7,0,0,0-59.66-59.7H418.88a60.18,60.18,0,0,0-60.19,60.18V287a59.71,59.71,0,0,0,59.7,59.66H549.06A59.66,59.66,0,0,0,608.72,287V256.51c-1.18,2.1-2.4,4.16-3.69,6.11q-12.09,18.84-29.46,29.13" transform="translate(-120 -145.29)"></path><path fill="#e91e2f " d="M612.39,209.83c-1.15.92-2.35,1.87-3.69,2.8-1.12.83-2.37,1.64-3.66,2.45a63.14,63.14,0,0,1-36.51,10.14c-1.2-.05-2.43-.16-3.69-.25l-2.54-.33c-.36-.09-.75-.11-1.11-.2-35.9-5.56-77.83-24.3-104.45-31.2-6.57-1.68-13.66-3.19-20.76-4.47h-5.61a24.08,24.08,0,0,0-24.08,24.08v32.32c30.95,12.21,61.15,36.68,93.36,47.15,9.83,3.19,26,6.65,43.63,4.31a82,82,0,0,0,11.9-2.46c2-.59,3.94-1.23,5.92-2,1.73-.62,3.41-1.35,5.14-2.16,14.22-6.64,28-18.52,38.8-38.74,1.29-2.38,2.49-4.83,3.66-7.43,1.32-2.82,2.54-5.76,3.69-8.86a196.3,196.3,0,0,0,9.33-34.11,62.41,62.41,0,0,1-9.33,9m0,7.07c-1.09,4.16-2.35,8.13-3.69,12-1.12,3.35-2.34,6.56-3.66,9.6-8.52,20-20.72,39.67-52.21,50.57,2.63-1.71,7.35-7.69,7.77-8.19-1,.23-17,4.64-34.44,0,11.31-1.28,28.15-5.11,42.54-19,0,0-20.34-2.71-34.25-14.7,0,0,17.13.73,32.6-6.53,0,0-10.81-5.73-17.32-12.85,3.13.64,8.38,1.78,11.46,2.26.08,0,.19.05.3.05l3.35.4c1.26.11,2.49.22,3.69.25A67,67,0,0,0,605,221.54c1.29-.7,2.49-1.46,3.66-2.21s2.54-1.68,3.69-2.51c0,0,.06,0,.06,0s-.06.05-.06.11" transform="translate(-120 -145.29)"></path><path fill="#0d243a" d="M137.29,396.49h-7.87v18H120v-47h17.29c11.31,0,17,6.39,17,14.53,0,7.13-4.84,14.4-17,14.4m7.27-14.4c0-4.31-2.35-6.86-7.67-6.86h-7.47v13.66h7.47c5.32,0,7.67-2.62,7.67-6.8" transform="translate(-120 -145.29)"></path><polygon fill="#0d243a" points="71.86 229.88 71.86 241.65 87.67 241.65 87.67 249.12 71.86 249.12 71.86 261.57 89.69 261.57 89.69 269.24 62.44 269.24 62.44 222.2 89.69 222.2 89.69 229.88 71.86 229.88"></polygon><path fill="#0d243a" d="M238.56,401h10.09c.27,3.77,2.76,6.26,7.13,6.26s7.07-2.35,7.07-5.72c0-10.16-24.23-4-24.16-21.06,0-8.48,6.87-13.59,16.55-13.59s16.22,4.91,16.83,13.39H261.71c-.21-3.1-2.7-5.52-6.73-5.59-3.71-.13-6.46,1.68-6.46,5.52,0,9.42,24.09,4.17,24.09,20.73,0,7.4-5.93,14.06-16.62,14.06-9.76,0-17.3-5.11-17.43-14" transform="translate(-120 -145.29)"></path><polygon fill="#0d243a" points="214.24 222.27 214.24 229.88 201.72 229.88 201.72 269.24 192.3 269.24 192.3 229.88 179.78 229.88 179.78 222.27 214.24 222.27"></polygon><path fill="#0d243a" d="M421.71,367c10.43,0,18.91,5.59,22.07,15.21H433c-2.22-4.51-6.26-6.73-11.31-6.73-8.21,0-14.07,6-14.07,15.55s5.86,15.54,14.07,15.54c5.05,0,9.09-2.22,11.31-6.8h10.83c-3.16,9.69-11.64,15.21-22.07,15.21-13.53,0-23.83-9.89-23.83-23.95s10.3-24,23.83-24" transform="translate(-120 -145.29)"></path><path fill="#0d243a" d="M471.09,390.91c0-14.07,10.83-24,24.09-24s24,9.95,24,24S508.51,415,495.18,415s-24.09-10-24.09-24.09m38.42,0c0-9.56-5.85-15.55-14.33-15.55s-14.4,6-14.4,15.55,5.86,15.68,14.4,15.68,14.33-6.13,14.33-15.68" transform="translate(-120 -145.29)"></path><polygon fill="#0d243a" points="467.9 269.24 458.48 269.24 437.15 237.01 437.15 269.24 427.73 269.24 427.73 222.2 437.15 222.2 458.48 254.5 458.48 222.2 467.9 222.2 467.9 269.24"></polygon><polygon fill="#0d243a" points="530.68 222.27 530.68 229.88 518.16 229.88 518.16 269.24 508.74 269.24 508.74 229.88 496.22 229.88 496.22 222.27 530.68 222.27"></polygon><path fill="#0d243a" d="M713.66,382c0,5.72-3.17,11.51-10.7,13.52l11.24,19H703.3l-10.37-18.31h-4.44v18.31h-9.42v-47H696.7c11.3,0,17,6.53,17,14.4m-17.3-6.6h-7.87v13.8h7.87c5.25,0,7.61-2.76,7.61-7s-2.36-6.8-7.61-6.8" transform="translate(-120 -145.29)"></path><path fill="#0d243a" d="M741.44,390.91c0-14.07,10.83-24,24.09-24s24,9.95,24,24S778.86,415,765.53,415s-24.09-10-24.09-24.09m38.42,0c0-9.56-5.85-15.55-14.33-15.55s-14.4,6-14.4,15.55,5.85,15.68,14.4,15.68,14.33-6.13,14.33-15.68" transform="translate(-120 -145.29)"></path><polygon fill="#0d243a" points="707.5 261.77 722.98 261.77 722.98 269.24 698.08 269.24 698.08 222.27 707.5 222.27 707.5 261.77"></polygon></svg>