<?xml version="1.0" encoding="UTF-8"?>
<!-- Generator: Adobe Illustrator 25.4.1, SVG Export Plug-In . SVG Version: 6.00 Build 0)  -->
<svg version="1.1" id="Layer_1" xmlns="http://www.w3.org/2000/svg" xmlns:xlink="http://www.w3.org/1999/xlink" x="0px" y="0px" viewBox="0 0 218.5 76.6" style="enable-background:new 0 0 218.5 76.6;" xml:space="preserve">
<style type="text/css">
	.st0{fill:#808285;}
	.st1{fill:#0668B3;}
</style>
<g>
	<path d="M46.9,53v-1c0.8,0,1.2,0,1.4-0.1c0.2,0,0.3-0.1,0.4-0.1c0.1-0.1,0.1-0.1,0.2-0.3c0.1-0.2,0.1-0.8,0.1-1.6l0-2.4v-5.6l0-2.3   c0-0.9-0.1-1.4-0.1-1.7c0-0.1-0.1-0.2-0.2-0.3c-0.1-0.1-0.2-0.1-0.4-0.1c-0.2,0-0.6-0.1-1.4-0.1v-1c1.3,0.1,2.7,0.1,4.1,0.1   c1.3,0,2.4,0,3.4-0.1v1c-0.8,0-1.3,0.1-1.5,0.1c-0.1,0-0.3,0.1-0.3,0.2c-0.1,0.1-0.1,0.4-0.1,0.8c-0.1,0.8-0.1,2-0.1,3.5v1.4   c0.6,0.1,1.8,0.1,3.6,0.1c2.3,0,3.7,0,4.3-0.1V42c0-1.2,0-2,0-2.4c-0.1-1-0.1-1.6-0.1-1.8c0-0.1-0.1-0.2-0.1-0.2   c-0.1-0.1-0.1-0.1-0.3-0.1c-0.1,0-0.6-0.1-1.5-0.1v-1c1,0.1,2.1,0.1,3.4,0.1c1.4,0,2.8,0,4.1-0.1v1c-0.8,0-1.2,0-1.4,0.1   c-0.2,0-0.3,0.1-0.4,0.1c-0.1,0.1-0.1,0.1-0.2,0.3c-0.1,0.2-0.1,0.8-0.1,1.6l0,2.4v5.6l0,2.3c0,0.9,0,1.4,0.1,1.7   c0,0.1,0.1,0.2,0.2,0.3c0.1,0.1,0.2,0.1,0.4,0.1c0.2,0,0.6,0.1,1.4,0.1v1c-1.3-0.1-2.7-0.1-4.1-0.1c-1.3,0-2.4,0-3.4,0.1v-1   c0.8,0,1.3-0.1,1.5-0.1c0.2,0,0.3-0.1,0.3-0.2c0.1-0.1,0.1-0.4,0.1-0.8c0.1-0.8,0.1-2,0.1-3.5v-2.5c-0.4-0.1-1.5-0.1-3.5-0.1   c-1.8,0-3.1,0-3.7,0c-0.2,0-0.5,0-0.7,0.1v2.5c0,1.2,0,2,0,2.4c0.1,1.1,0.1,1.6,0.1,1.8c0,0.1,0.1,0.2,0.1,0.2   c0.1,0.1,0.1,0.1,0.3,0.1c0.1,0,0.6,0.1,1.5,0.1v1c-1-0.1-2.1-0.1-3.4-0.1C49.6,52.9,48.2,52.9,46.9,53z"/>
	<path d="M71.2,44.9c0-1.4,0.2-2.7,0.7-3.8c0.4-1.1,1.1-2,1.9-2.7c0.8-0.8,1.7-1.3,2.7-1.6c1.2-0.4,2.6-0.6,4-0.6   c1.4,0,2.7,0.2,3.9,0.6c0.9,0.3,1.6,0.8,2.3,1.3c0.7,0.6,1.2,1.2,1.5,1.8c0.3,0.6,0.6,1.3,0.8,2c0.2,0.7,0.3,1.5,0.3,2.4   c0,1.5-0.3,2.9-0.8,4.1c-0.4,0.9-0.9,1.8-1.7,2.5c-0.7,0.7-1.6,1.3-2.5,1.7c-1.3,0.5-2.7,0.8-4.4,0.8c-1.8,0-3.3-0.3-4.6-1   c-1.3-0.6-2.3-1.6-3-2.9C71.6,48.3,71.2,46.7,71.2,44.9z M74.9,44.1c0,1.8,0.3,3.4,0.8,4.6c0.5,1.2,1.2,2.1,1.9,2.6   c0.8,0.5,1.7,0.7,2.8,0.7c1,0,1.9-0.2,2.7-0.7c0.8-0.5,1.4-1.3,1.9-2.4c0.4-1.1,0.7-2.5,0.7-4.1c0-1.1-0.1-2.1-0.4-3   c-0.2-0.9-0.6-1.7-1-2.3c-0.5-0.6-1-1.1-1.6-1.5c-0.6-0.3-1.4-0.5-2.4-0.5c-1.2,0-2.1,0.3-2.9,0.8c-0.8,0.5-1.4,1.3-1.8,2.4   C75.1,41.7,74.9,42.9,74.9,44.1z"/>
	<path d="M106.1,40.7h-1c0-0.9-0.1-1.6-0.1-1.9c-0.2-0.3-0.7-0.7-1.3-0.9c-0.6-0.3-1.3-0.4-2-0.4c-1.1,0-1.9,0.3-2.5,0.8   c-0.6,0.5-0.9,1.2-0.9,1.9c0,0.5,0.1,0.9,0.3,1.3c0.2,0.3,0.4,0.6,0.7,0.8c0.3,0.2,0.8,0.4,1.4,0.5c0.5,0.1,1.1,0.2,1.9,0.4   c0.8,0.1,1.3,0.2,1.6,0.3c0.6,0.2,1.2,0.4,1.6,0.6c0.4,0.2,0.7,0.5,0.9,0.8c0.2,0.3,0.4,0.7,0.6,1.2c0.2,0.5,0.2,1,0.2,1.6   c0,1-0.2,1.9-0.6,2.7c-0.3,0.6-0.8,1.1-1.3,1.6c-0.6,0.5-1.1,0.8-1.7,1.1c-1,0.4-2.1,0.6-3.4,0.6c-1,0-1.8-0.1-2.6-0.3   c-0.8-0.2-1.6-0.5-2.5-0.9c0.2-0.9,0.4-2.3,0.4-4.1h1c0,0.6,0,1.3,0.1,2.1c0.3,0.5,0.8,0.9,1.5,1.3c0.7,0.4,1.5,0.6,2.4,0.6   c0.8,0,1.4-0.1,2-0.4c0.6-0.3,1-0.6,1.3-1.1c0.3-0.5,0.4-1,0.4-1.6c0-0.5-0.1-0.9-0.3-1.3c-0.2-0.4-0.5-0.6-0.9-0.9   c-0.4-0.2-1.1-0.4-2.1-0.7c-1.4-0.3-2.4-0.5-2.8-0.7c-0.7-0.2-1.2-0.5-1.6-0.9c-0.4-0.4-0.7-0.9-0.9-1.4c-0.2-0.6-0.3-1.1-0.3-1.8   c0-0.9,0.2-1.7,0.6-2.5c0.4-0.7,0.9-1.3,1.5-1.7c0.6-0.4,1.3-0.7,2.1-0.9c0.8-0.2,1.6-0.3,2.4-0.3c0.8,0,1.6,0.1,2.4,0.2   c0.8,0.1,1.5,0.4,2,0.7l0.1,0.3c-0.1,0.5-0.2,1-0.2,1.5C106.1,39.2,106.1,39.9,106.1,40.7z"/>
	<path d="M113.1,37.3v-1l3.5,0.1l5.3-0.1c1,0,1.9,0.1,2.5,0.3c0.6,0.2,1.1,0.6,1.5,1.2c0.4,0.6,0.6,1.3,0.6,2.2s-0.2,1.7-0.6,2.5   c-0.4,0.8-1.1,1.4-1.9,1.9c-0.9,0.5-1.8,0.7-2.8,0.7c-0.3,0-0.5,0-0.7,0c-0.2,0-0.5-0.1-0.7-0.1c-0.1-0.2-0.2-0.5-0.4-0.8l0.2-0.3   c0.2,0.1,0.3,0.1,0.5,0.1c0.2,0,0.3,0,0.4,0c0.8,0,1.4-0.3,1.9-0.8c0.5-0.5,0.7-1.3,0.7-2.4c0-1.1-0.3-1.9-0.8-2.4   c-0.5-0.5-1.2-0.8-2.2-0.8c-0.4,0-0.9,0.1-1.5,0.2c0,0.5-0.1,1.2-0.1,2.2l0,2.3v4.5c0,1.1,0,2.3,0.1,3.4c0,0.7,0.1,1.1,0.1,1.3   c0,0.1,0.1,0.1,0.2,0.2c0.1,0.1,0.2,0.1,0.4,0.1l1.6,0.1v1c-2-0.1-3.5-0.1-4.6-0.1c-1.1,0-2.2,0-3.2,0.1v-1c0.9,0,1.4-0.1,1.7-0.2   c0.1,0,0.1-0.1,0.2-0.2c0.1-0.1,0.1-0.4,0.1-0.9c0.1-1.3,0.1-2.7,0.1-4.2v-4.2l-0.1-2.2c0-1,0-1.6-0.1-1.8c0-0.2-0.1-0.4-0.1-0.5   c0-0.1-0.1-0.1-0.2-0.2c-0.1,0-0.2-0.1-0.4-0.1L113.1,37.3z"/>
	<path d="M139.5,36.4v1c-0.8,0-1.3,0.1-1.4,0.1c-0.2,0-0.3,0.1-0.3,0.1c-0.1,0.1-0.1,0.1-0.1,0.2c-0.1,0.1-0.1,0.4-0.1,0.8   c0,0.2,0,0.6,0,1.2c0,1.9,0,3,0,3.1v4.8l0,2.2c0,0.8,0,1.3,0.1,1.6c0,0.1,0.1,0.2,0.2,0.3c0.1,0.1,0.2,0.1,0.4,0.1   c0.2,0,0.6,0.1,1.4,0.1v1c-1.3-0.1-2.7-0.1-4.1-0.1c-1.3,0-2.4,0-3.4,0.1v-1c0.8,0,1.3-0.1,1.4-0.1c0.2,0,0.3-0.1,0.3-0.1   c0.1-0.1,0.1-0.1,0.1-0.2c0-0.1,0.1-0.5,0.1-1.1c0.1-0.9,0.1-1.8,0.1-2.6v-5c0-1.6,0-2.6,0-3c0-1-0.1-1.6-0.1-1.9   c0-0.1-0.1-0.2-0.1-0.2c-0.1-0.1-0.1-0.1-0.3-0.1c-0.1,0-0.6-0.1-1.5-0.1v-1c1,0.1,2.1,0.1,3.4,0.1   C136.8,36.4,138.2,36.4,139.5,36.4z"/>
	<path d="M148.2,53v-1c0.9,0,1.5-0.1,1.7-0.2c0.2-0.1,0.3-0.3,0.4-0.5c0.1-0.3,0.1-1.4,0.1-3.1v-7.1c0-1.9,0-3,0-3.3h-1.7   c-0.9,0-1.6,0-2.3,0.1c-0.3,0-0.4,0.1-0.5,0.1c-0.1,0-0.1,0.2-0.1,0.4c-0.1,0.6-0.2,1.2-0.2,1.9h-1c0-1.6,0-2.5-0.1-2.7   c0-0.3-0.1-0.7-0.1-1.1l0.1-0.1c0.4,0,0.8,0.1,1.2,0.1c0.7,0,2,0,3.9,0h4.8c2,0,3.3,0,4,0c0.4,0,0.7,0,1.1-0.1l0.1,0.1   c-0.1,0.5-0.1,0.9-0.1,1.3c0,0.1,0,0.9,0,2.6h-1c0-0.6-0.1-1.2-0.2-1.8c0-0.3-0.1-0.5-0.2-0.5c0,0-0.2-0.1-0.4-0.1   c-0.6-0.1-1.4-0.1-2.3-0.1h-1.7c0,0.3,0,1.4,0,3.3v7.1c0,1.7,0,2.7,0.1,3.1c0.1,0.2,0.2,0.4,0.4,0.5c0.2,0.1,0.7,0.2,1.7,0.2v1   c-1.5-0.1-2.8-0.1-3.9-0.1C150.9,52.8,149.6,52.9,148.2,53z"/>
	<path d="M162.1,53v-1c0.6,0,1-0.1,1.1-0.1c0.1,0,0.2-0.1,0.3-0.2c0.1-0.1,0.2-0.2,0.3-0.4c0.1-0.2,0.4-0.8,0.8-1.8   c0.2-0.5,0.6-1.5,1.2-2.9l3.1-7.6l1-2.7h1.7l5.3,12.4l0.7,1.6l0.5,1.1c0.1,0.1,0.2,0.2,0.2,0.3c0.1,0.1,0.2,0.1,0.2,0.1   c0.1,0,0.3,0.1,0.7,0.1c0.1,0,0.3,0,0.5,0.1v1l-3.3-0.1l-4.2,0.1v-1c1,0,1.5-0.1,1.6-0.2c0.1-0.1,0.2-0.2,0.2-0.3   c0-0.2-0.1-0.5-0.3-1l-1-2.6h-6.1l-0.5,1.4c-0.4,1.1-0.6,1.8-0.6,2c0,0.2,0.1,0.3,0.2,0.4c0.2,0.1,0.8,0.2,1.7,0.2v1l-2.7-0.1   L162.1,53z M167.3,46.5c0.7,0,1.6,0,2.5,0c0.9,0,1.7,0,2.4,0l-2.5-6.1L167.3,46.5z"/>
	<path d="M185.7,53v-0.6c0.2-0.1,0.5-0.2,0.9-0.5c0.2-0.1,0.3-0.2,0.3-0.2c0,0,0.1-0.1,0.1-0.1c0-0.2,0.1-0.9,0.1-2.1   c0-1.2,0-2.7,0-4.4c0-2.5,0-4,0-4.6c0-1.5-0.1-2.3-0.1-2.5c0-0.1-0.1-0.2-0.2-0.2c-0.2-0.1-0.8-0.2-1.8-0.2v-1   c1,0.1,2.2,0.1,3.4,0.1c1.4,0,2.8,0,4.1-0.1v1c-0.9,0-1.4,0.1-1.6,0.2c-0.1,0-0.1,0.1-0.2,0.2c0,0.1-0.1,0.6-0.1,1.5   c0,0.9-0.1,2-0.1,3.3c0,0.1,0,1.3,0,3.4c0,1.1,0,2.3,0,3.4c0,1.1,0,1.8,0,2c1.1,0.1,1.8,0.1,2.2,0.1c1.2,0,2.3-0.1,3.1-0.2   c0.3,0,0.5-0.1,0.6-0.2c0.1-0.1,0.1-0.2,0.2-0.4c0.2-0.6,0.3-1.3,0.5-2.1h1c0,0.2,0,0.4,0,0.4l-0.3,2.4c-0.1,0.8-0.1,1.2-0.1,1.4   c-0.2,0.1-0.5,0.1-0.7,0.1c-0.5,0-1.2,0.1-2.2,0.1c-0.1,0-1.1,0-2.8-0.1c-1.3,0-2.2,0-2.7,0C188.4,52.8,187.3,52.9,185.7,53z"/>
</g>
<g>
	<path d="M62.4,7.7H61c0-1.3-0.1-2.2-0.2-2.8c-0.3-0.5-1-0.9-1.8-1.3C58.2,3.2,57.2,3,56.1,3c-1.5,0-2.7,0.4-3.6,1.2   c-0.8,0.8-1.3,1.7-1.3,2.7c0,0.7,0.1,1.4,0.4,1.8c0.2,0.5,0.6,0.8,1,1.1c0.4,0.3,1.1,0.5,1.9,0.7c0.7,0.1,1.6,0.3,2.7,0.5   c1.2,0.2,1.9,0.3,2.3,0.4c0.9,0.2,1.7,0.5,2.2,0.9c0.6,0.3,1,0.7,1.3,1.2c0.3,0.4,0.6,1,0.8,1.6c0.2,0.7,0.3,1.4,0.3,2.2   c0,1.4-0.3,2.7-0.9,3.8c-0.5,0.8-1.1,1.6-1.9,2.3c-0.8,0.7-1.6,1.2-2.5,1.5c-1.4,0.5-3,0.8-4.9,0.8c-1.4,0-2.6-0.1-3.7-0.4   c-1.1-0.3-2.3-0.7-3.6-1.3c0.3-1.3,0.5-3.2,0.5-5.9h1.4c0,0.8,0,1.8,0.2,3c0.4,0.7,1.2,1.3,2.2,1.9c1,0.5,2.2,0.8,3.4,0.8   c1.1,0,2-0.2,2.9-0.6c0.8-0.4,1.5-0.9,1.8-1.6c0.4-0.7,0.6-1.4,0.6-2.3c0-0.7-0.1-1.3-0.4-1.8c-0.3-0.5-0.7-0.9-1.2-1.2   c-0.6-0.3-1.6-0.6-3-1c-2-0.4-3.4-0.7-4-0.9c-1-0.3-1.8-0.7-2.3-1.3c-0.6-0.6-1-1.2-1.3-2c-0.3-0.8-0.4-1.6-0.4-2.5   c0-1.3,0.3-2.4,0.8-3.5c0.5-1.1,1.2-1.9,2.1-2.5c0.9-0.6,1.9-1,2.9-1.3c1.1-0.3,2.2-0.4,3.4-0.4c1.2,0,2.4,0.1,3.5,0.3   C61,1.6,62,1.9,62.8,2.3l0.1,0.4c-0.2,0.7-0.3,1.4-0.3,2.2C62.5,5.6,62.5,6.5,62.4,7.7z"/>
	<path d="M70.2,25.2V24c1.2,0,1.9-0.1,2.1-0.2c0.2-0.1,0.4-0.3,0.4-0.6c0.1-0.4,0.2-1.7,0.2-3.8v-8.7c0-2.4,0-3.7,0-4h-2.1   c-1,0-2,0-2.8,0.1c-0.3,0-0.5,0.1-0.6,0.1c-0.1,0.1-0.1,0.2-0.2,0.5c-0.1,0.7-0.2,1.4-0.2,2.3h-1.2c0-2-0.1-3.1-0.1-3.4   c0-0.4-0.1-0.9-0.1-1.4l0.1-0.1c0.5,0,0.9,0.1,1.5,0.1c0.8,0,2.4,0,4.8,0h5.9c2.4,0,4.1,0,4.9,0c0.4,0,0.9-0.1,1.4-0.1L84.3,5   c-0.1,0.6-0.1,1.1-0.2,1.6c0,0.1,0,1.1-0.1,3.2h-1.2c0-0.8-0.1-1.5-0.2-2.2c-0.1-0.3-0.1-0.6-0.2-0.6c-0.1,0-0.2-0.1-0.5-0.1   c-0.8-0.1-1.8-0.1-2.9-0.1h-2.1c0,0.3,0,1.7,0,4v8.7c0,2.1,0.1,3.4,0.2,3.8c0.1,0.3,0.2,0.4,0.4,0.6c0.2,0.1,0.9,0.2,2.1,0.2v1.2   c-1.9-0.1-3.5-0.1-4.8-0.1C73.6,25.1,72,25.1,70.2,25.2z"/>
	<path d="M87.2,20.3c0.7,0,1.4,0.3,1.9,0.8c0.5,0.5,0.8,1.1,0.8,1.9c0,0.7-0.3,1.4-0.8,1.9c-0.5,0.5-1.1,0.8-1.9,0.8   c-0.7,0-1.4-0.3-1.9-0.8c-0.5-0.5-0.8-1.1-0.8-1.9c0-0.7,0.3-1.4,0.8-1.9C85.9,20.5,86.5,20.3,87.2,20.3z"/>
	<path d="M101.4,29.2l0.4-0.2c0.5,0.5,1,0.8,1.3,1c0.3,0.2,0.7,0.2,1.1,0.2c0.4,0,0.8-0.1,1-0.3c0.2-0.2,0.4-0.5,0.5-0.8   c0.1-0.4,0.2-1.1,0.2-2.4c0.1-2.4,0.1-3.7,0.1-4V9.5c0-1.5,0-2.8-0.1-3.9c0-1.2-0.1-1.9-0.2-2.1c0-0.1-0.1-0.2-0.2-0.3   c-0.1-0.1-0.4-0.2-0.7-0.2L102.7,3V1.5c2.2,0.1,4.4,0.1,6.6,0.1c1.9,0,3.5,0,4.8-0.1V3c-1.2,0-1.8,0.1-2.1,0.1   c-0.3,0.1-0.5,0.2-0.7,0.3c-0.1,0.2-0.2,0.4-0.3,0.9C111,5.2,111,6.5,111,8.1v6.2l0,7.2c0,1.8-0.2,3.3-0.5,4.4   c-0.3,1.1-0.9,2.1-1.7,3.1c-0.5,0.7-1.2,1.3-1.9,1.9c-0.8,0.6-1.5,1-2.2,1.3c-0.7,0.3-1.4,0.5-2,0.5c-0.4,0-0.9-0.1-1.4-0.3   C101.4,31.6,101.4,30.5,101.4,29.2z"/>
	<path d="M116.4,15.2c0-1.8,0.3-3.3,0.8-4.6c0.5-1.3,1.3-2.4,2.3-3.4c1-0.9,2.1-1.6,3.3-2c1.5-0.5,3.1-0.8,4.9-0.8   c1.8,0,3.4,0.2,4.8,0.7c1.1,0.4,2,0.9,2.8,1.6c0.8,0.7,1.4,1.4,1.9,2.2c0.4,0.7,0.8,1.6,1,2.5c0.2,0.9,0.3,1.9,0.3,3   c0,1.8-0.3,3.5-0.9,5.1c-0.5,1.2-1.1,2.2-2,3.1c-0.9,0.9-1.9,1.6-3.1,2.1c-1.6,0.7-3.4,1-5.4,1c-2.2,0-4.1-0.4-5.6-1.2   c-1.6-0.8-2.8-2-3.7-3.5C116.9,19.5,116.4,17.5,116.4,15.2z M120.9,14.4c0,2.3,0.3,4.1,0.9,5.6c0.6,1.5,1.4,2.5,2.4,3.1   c1,0.6,2.1,0.9,3.4,0.9c1.2,0,2.3-0.3,3.3-0.9c1-0.6,1.7-1.6,2.3-3c0.5-1.4,0.8-3.1,0.8-5.1c0-1.4-0.1-2.6-0.4-3.7   c-0.3-1.1-0.7-2.1-1.3-2.9c-0.6-0.8-1.2-1.4-2-1.8c-0.8-0.4-1.8-0.6-3-0.6c-1.4,0-2.6,0.3-3.6,1c-1,0.7-1.7,1.6-2.2,3   C121.1,11.4,120.9,12.8,120.9,14.4z"/>
	<path d="M154.7,10.1h-1.2c0-1.1-0.1-1.9-0.1-2.4c-0.3-0.4-0.8-0.8-1.6-1.1c-0.7-0.3-1.6-0.5-2.5-0.5c-1.3,0-2.3,0.3-3.1,1   c-0.7,0.7-1.1,1.4-1.1,2.3c0,0.6,0.1,1.2,0.3,1.6c0.2,0.4,0.5,0.7,0.9,0.9c0.4,0.2,0.9,0.4,1.7,0.6c0.6,0.1,1.3,0.3,2.4,0.4   c1,0.2,1.7,0.3,2,0.4c0.8,0.2,1.4,0.4,1.9,0.7c0.5,0.3,0.9,0.6,1.2,1c0.3,0.4,0.5,0.8,0.7,1.4c0.2,0.6,0.3,1.2,0.3,1.9   c0,1.2-0.3,2.3-0.8,3.3c-0.4,0.7-0.9,1.4-1.6,1.9c-0.7,0.6-1.4,1-2.1,1.3c-1.2,0.5-2.6,0.7-4.2,0.7c-1.2,0-2.3-0.1-3.2-0.3   c-0.9-0.2-2-0.6-3.1-1.2c0.3-1.1,0.5-2.8,0.5-5.1h1.2c0,0.7,0,1.6,0.2,2.6c0.4,0.6,1,1.1,1.9,1.6c0.9,0.5,1.9,0.7,2.9,0.7   c0.9,0,1.7-0.2,2.5-0.5c0.7-0.3,1.2-0.8,1.6-1.3c0.3-0.6,0.5-1.2,0.5-2c0-0.6-0.1-1.1-0.3-1.6c-0.2-0.4-0.6-0.8-1.1-1.1   c-0.5-0.3-1.3-0.5-2.6-0.8c-1.8-0.4-2.9-0.6-3.5-0.8c-0.8-0.3-1.5-0.6-2-1.1c-0.5-0.5-0.9-1.1-1.1-1.7c-0.3-0.7-0.4-1.4-0.4-2.2   c0-1.1,0.2-2.1,0.7-3c0.5-0.9,1.1-1.6,1.8-2.1c0.7-0.5,1.6-0.9,2.5-1.1c0.9-0.2,1.9-0.3,2.9-0.3c1,0,2,0.1,3,0.3   c1,0.2,1.8,0.4,2.5,0.8l0.1,0.3c-0.1,0.6-0.2,1.2-0.3,1.9C154.8,8.3,154.8,9.1,154.7,10.1z"/>
	<path d="M159.7,25.2v-0.8c0.6-0.3,1.1-0.6,1.4-0.8c0.1-0.4,0.1-1.1,0.1-2c0.1-1.7,0.1-2.9,0.1-3.6v-6.6c0-0.3,0-1.2,0-2.8   c0-1.1-0.1-1.8-0.2-2c0-0.1-0.1-0.2-0.2-0.2c-0.3-0.1-1-0.2-2.1-0.3V4.9l3.4,0c0.7,0,1.3,0,1.9,0c1.3,0,2.8,0,4.4,0l3-0.1   c0.3,0,1.1,0,2.1,0.1c0.1,0,0.3,0,0.5,0.1l0.1,0.2L174,7.2c0,0.1-0.1,0.8-0.1,2.1h-1.1c0-1.1-0.1-1.9-0.1-2.1   c0-0.1-0.1-0.2-0.2-0.3c-0.1-0.1-0.5-0.2-1.2-0.2c-1-0.1-1.9-0.2-2.8-0.2c-0.9,0-1.7,0-2.6,0.1c-0.1,1.1-0.2,2.5-0.2,4.2v3   c0.7,0,1.3,0.1,2.1,0.1c0.2,0,1,0,2.4-0.1c0.5,0,0.8,0,0.9-0.1c0.1-0.1,0.2-0.2,0.2-0.3c0.1-0.4,0.2-1,0.2-1.9h1.2l-0.1,3.2   l0.1,3.2h-1.2c0-1.1-0.1-1.8-0.2-2.1c-0.1-0.2-0.3-0.3-0.6-0.4c-0.7-0.1-1.5-0.2-2.6-0.2c-1,0-1.7,0-2.4,0.1v6.1c0,0.7,0,1.3,0,1.8   c0.8,0.1,1.7,0.1,2.8,0.1c1,0,2,0,2.9-0.1c0.9-0.1,1.4-0.2,1.6-0.3c0.1,0,0.1-0.1,0.2-0.3c0.2-0.5,0.4-1.4,0.6-2.7h1.2   c-0.2,1.9-0.3,3.5-0.3,4.7l-0.2,0.2c-0.6,0.1-1.5,0.1-2.7,0.1l-2.3-0.1c-2.3,0-3.9,0-4.8,0C164.4,25.1,162.7,25.1,159.7,25.2z"/>
	<path d="M177.1,6V4.8l4.3,0.1l6.5-0.1c1.3,0,2.3,0.1,3,0.4c0.7,0.3,1.4,0.7,1.9,1.4c0.5,0.7,0.8,1.6,0.8,2.7s-0.3,2.1-0.8,3.1   c-0.5,0.9-1.3,1.7-2.4,2.3c-1.1,0.6-2.2,0.9-3.5,0.9c-0.3,0-0.6,0-0.9,0c-0.3,0-0.6-0.1-0.9-0.2c-0.1-0.3-0.3-0.6-0.5-1L185,14   c0.2,0.1,0.4,0.1,0.6,0.2c0.2,0,0.4,0.1,0.5,0.1c0.9,0,1.7-0.3,2.3-1c0.6-0.7,0.9-1.6,0.9-2.9c0-1.3-0.3-2.3-1-3   c-0.6-0.7-1.5-1-2.7-1c-0.5,0-1.2,0.1-1.8,0.2c0,0.6-0.1,1.5-0.1,2.7l0,2.9v5.5c0,1.4,0,2.8,0.1,4.2c0,0.8,0.1,1.4,0.2,1.6   c0,0.1,0.1,0.2,0.2,0.3c0.1,0.1,0.3,0.1,0.5,0.2l2,0.1v1.3c-2.5-0.1-4.4-0.1-5.6-0.1c-1.4,0-2.7,0-3.9,0.1v-1.3   c1.1,0,1.8-0.1,2-0.2c0.1,0,0.2-0.1,0.2-0.2c0.1-0.1,0.1-0.5,0.2-1.1c0.1-1.6,0.2-3.3,0.2-5.2v-5.1l-0.1-2.7c0-1.2,0-1.9-0.1-2.2   c0-0.3-0.1-0.5-0.1-0.6c0-0.1-0.1-0.1-0.2-0.2c-0.1-0.1-0.3-0.1-0.5-0.2L177.1,6z"/>
	<path d="M195.4,25.2v-1.3c0.9,0,1.5,0,1.7-0.1c0.2,0,0.4-0.1,0.5-0.2c0.1-0.1,0.2-0.2,0.2-0.3c0.1-0.3,0.1-1,0.2-2l0.1-2.9v-6.8   l-0.1-2.9c0-1.1-0.1-1.8-0.2-2.1c0-0.1-0.1-0.2-0.2-0.3c-0.1-0.1-0.2-0.1-0.4-0.2c-0.2,0-0.8-0.1-1.7-0.1V4.8   c1.6,0.1,3.3,0.1,5,0.1c1.6,0,3,0,4.2-0.1v1.3c-1,0-1.7,0.1-1.8,0.1c-0.2,0-0.3,0.1-0.4,0.2c-0.1,0.1-0.1,0.4-0.2,1   c-0.1,1-0.1,2.4-0.1,4.3v1.7c0.7,0.1,2.2,0.1,4.4,0.1c2.8,0,4.6,0,5.2-0.1v-1.7c0-1.5,0-2.5,0-2.9c-0.1-1.3-0.1-2-0.2-2.2   c0-0.1-0.1-0.2-0.1-0.3c-0.1-0.1-0.2-0.1-0.3-0.2c-0.2,0-0.8-0.1-1.8-0.1V4.8c1.2,0.1,2.6,0.1,4.2,0.1c1.8,0,3.4,0,5-0.1v1.3   c-0.9,0-1.5,0.1-1.7,0.1c-0.2,0-0.4,0.1-0.5,0.2c-0.1,0.1-0.2,0.2-0.2,0.3c-0.1,0.3-0.2,1-0.2,2l-0.1,2.9v6.8l0.1,2.9   c0,1.1,0.1,1.8,0.1,2.1c0,0.1,0.1,0.2,0.2,0.3c0.1,0.1,0.2,0.1,0.4,0.2c0.2,0,0.8,0.1,1.7,0.1v1.3c-1.6-0.1-3.3-0.1-5-0.1   c-1.6,0-3,0-4.2,0.1v-1.3c1,0,1.7-0.1,1.8-0.1c0.2,0,0.3-0.1,0.4-0.2c0.1-0.1,0.1-0.4,0.2-1c0.1-1,0.1-2.4,0.1-4.3v-3   c-0.5-0.1-1.9-0.1-4.2-0.1c-2.2,0-3.7,0-4.5,0c-0.3,0-0.6,0-0.9,0.1v3c0,1.5,0,2.5,0,2.9c0.1,1.3,0.1,2,0.2,2.2   c0,0.1,0.1,0.2,0.1,0.3c0.1,0.1,0.2,0.1,0.3,0.2c0.2,0,0.8,0.1,1.8,0.1v1.3c-1.2-0.1-2.6-0.1-4.2-0.1   C198.7,25.1,197,25.1,195.4,25.2z"/>
</g>
<g>
	<path class="st0" d="M49.6,67.1h1.9l2.4,9.3h-1.5l-0.6-2.3h-2.7l-0.6,2.3h-1.5L49.6,67.1z M51.5,72.9l-1.1-4.6h0l-1.1,4.6H51.5z"/>
	<path class="st0" d="M57.7,67.1H60l1.6,6.9h0l1.6-6.9h2.3v9.3h-1.4v-7.7h0l-1.9,7.7H61l-1.9-7.7h0v7.7h-1.4V67.1z"/>
	<path class="st0" d="M68.2,73.1v0.4c0,0.9,0.1,2.1,1.2,2.1c1,0,1.1-1.1,1.1-1.6h1.3c0,1.5-0.9,2.5-2.5,2.5c-1.1,0-2.6-0.3-2.6-3.6   c0-1.8,0.4-3.8,2.6-3.8c2,0,2.5,1.2,2.5,3.1v0.7H68.2z M70.4,72.1v-0.4c0-0.9-0.3-1.6-1.1-1.6c-0.9,0-1.2,0.9-1.2,1.8v0.1H70.4z"/>
	<path class="st0" d="M73.1,69.4h1.3v0.8h0c0.4-0.6,1-1,1.7-1c1,0,1.4,0.5,1.6,1.1c0.4-0.7,0.9-1.1,1.8-1.1c1,0,1.7,0.5,1.7,1.9v5.3   h-1.4v-4.8c0-0.9-0.3-1.3-0.8-1.3c-0.6,0-1.1,0.5-1.1,1.4v4.7h-1.4v-4.8c0-0.9-0.3-1.3-0.9-1.3c-0.6,0-1.1,0.5-1.1,1.4v4.7h-1.4   V69.4z"/>
	<path class="st0" d="M82.6,67.1H84v3.1h0c0.3-0.6,0.8-1,1.6-1c1.1,0,2.2,0.5,2.2,3.6c0,2.4-0.6,3.8-2.3,3.8c-1,0-1.4-0.6-1.5-1h0   v0.9h-1.3V67.1z M85.1,75.5c1,0,1.2-1,1.2-2.6c0-1.9-0.3-2.5-1.1-2.5c-1.1,0-1.3,1-1.3,2.6C83.9,74.5,84.2,75.5,85.1,75.5z"/>
	<path class="st0" d="M90.1,73.1v0.4c0,0.9,0.1,2.1,1.2,2.1c1,0,1.1-1.1,1.1-1.6h1.3c0,1.5-0.9,2.5-2.5,2.5c-1.1,0-2.6-0.3-2.6-3.6   c0-1.8,0.4-3.8,2.6-3.8c1.9,0,2.5,1.2,2.5,3.1v0.7H90.1z M92.3,72.1v-0.4c0-0.9-0.3-1.6-1.1-1.6c-0.9,0-1.2,0.9-1.2,1.8v0.1H92.3z"/>
	<path class="st0" d="M94.9,69.4h1.4v1.1h0c0.3-0.8,0.8-1.3,1.6-1.3c0.2,0,0.2,0,0.3,0.1v1.4c-0.1,0-0.4-0.1-0.6-0.1   c-0.6,0-1.4,0.3-1.4,1.6v4.2h-1.4V69.4z"/>
	<path class="st0" d="M104.4,69.2c2,0,2.6,1.5,2.6,3.7s-0.7,3.7-2.6,3.7c-1.9,0-2.6-1.5-2.6-3.7S102.4,69.2,104.4,69.2z M104.4,75.5   c1,0,1.2-0.9,1.2-2.6c0-1.5-0.2-2.6-1.2-2.6c-1,0-1.2,1.1-1.2,2.6C103.2,74.7,103.4,75.5,104.4,75.5z"/>
	<path class="st0" d="M108.6,70.4h-1v-1h1v-0.7c0-1.3,0.6-1.7,1.8-1.7c0.3,0,0.6,0,0.8,0v1.1h-0.4c-0.5,0-0.8,0.2-0.8,0.7v0.6h1.1v1   H110v6h-1.4V70.4z"/>
	<path class="st0" d="M120.7,73.1v0.2c0,1.7-0.7,3.3-2.9,3.3c-2.3,0-3.1-1.5-3.1-4.8c0-3.3,0.7-4.8,3.1-4.8c2.6,0,2.8,2,2.8,2.9V70   h-1.5v-0.2c0-0.9-0.3-1.8-1.3-1.8c-1.1,0-1.6,0.7-1.6,3.7c0,3,0.5,3.7,1.6,3.7c1.2,0,1.4-1.4,1.4-2.2v-0.2H120.7z"/>
	<path class="st0" d="M123.9,69.2c2,0,2.6,1.5,2.6,3.7s-0.7,3.7-2.6,3.7c-1.9,0-2.6-1.5-2.6-3.7S121.9,69.2,123.9,69.2z M123.9,75.5   c1,0,1.2-0.9,1.2-2.6c0-1.5-0.2-2.6-1.2-2.6c-1,0-1.2,1.1-1.2,2.6C122.7,74.7,122.9,75.5,123.9,75.5z"/>
	<path class="st0" d="M127,69.4h1.5l1.2,5.5h0l1.1-5.5h1.5l-1.8,7h-1.6L127,69.4z"/>
	<path class="st0" d="M134.3,73.1v0.4c0,0.9,0.1,2.1,1.2,2.1c1,0,1.1-1.1,1.1-1.6h1.3c0,1.5-0.9,2.5-2.5,2.5c-1.1,0-2.6-0.3-2.6-3.6   c0-1.8,0.4-3.8,2.6-3.8c1.9,0,2.5,1.2,2.5,3.1v0.7H134.3z M136.5,72.1v-0.4c0-0.9-0.3-1.6-1.1-1.6c-0.9,0-1.2,0.9-1.2,1.8v0.1   H136.5z"/>
	<path class="st0" d="M139.1,69.4h1.3v0.8h0c0.4-0.6,1-1,1.8-1c1.1,0,1.7,0.5,1.7,1.9v5.3h-1.4v-4.8c0-0.9-0.3-1.3-1-1.3   c-0.6,0-1.1,0.5-1.1,1.4v4.7h-1.4V69.4z"/>
	<path class="st0" d="M149.9,74.9c0,0.3,0.2,0.5,0.4,0.5c0.1,0,0.2,0,0.2,0v0.9c-0.2,0.1-0.4,0.2-0.7,0.2c-0.6,0-1.1-0.2-1.2-0.9h0   c-0.4,0.7-0.9,1-1.7,1c-1.1,0-1.8-0.6-1.8-2c0-1.6,0.7-1.9,1.6-2.2l1.1-0.3c0.5-0.1,0.8-0.3,0.8-0.9c0-0.6-0.2-1-1-1   c-0.9,0-1.1,0.7-1.1,1.3h-1.3c0-1.5,0.6-2.3,2.5-2.3c1.2,0,2.2,0.5,2.2,1.7V74.9z M148.6,72.7c-0.4,0.3-1.1,0.5-1.6,0.7   c-0.4,0.2-0.6,0.6-0.6,1.1c0,0.6,0.3,1.1,0.9,1.1c0.8,0,1.3-0.6,1.3-1.7V72.7z"/>
	<path class="st0" d="M151.4,69.4h1.3v0.8h0c0.4-0.6,1-1,1.8-1c1.1,0,1.7,0.5,1.7,1.9v5.3h-1.4v-4.8c0-0.9-0.3-1.3-1-1.3   c-0.6,0-1.1,0.5-1.1,1.4v4.7h-1.4V69.4z"/>
	<path class="st0" d="M157,69.4h1v-2h1.4v2h1.1v1h-1.1v4.2c0,0.5,0.2,0.7,0.6,0.7c0.2,0,0.4,0,0.5,0v1c-0.3,0.1-0.7,0.1-1.1,0.1   c-0.9,0-1.4-0.3-1.4-1.7v-4.3h-1V69.4z"/>
	<path class="st0" d="M164.5,67.1h1.5v3.7h2.7v-3.7h1.5v9.3h-1.5v-4.3h-2.7v4.3h-1.5V67.1z"/>
	<path class="st0" d="M172.8,73.1v0.4c0,0.9,0.1,2.1,1.2,2.1c1,0,1.1-1.1,1.1-1.6h1.3c0,1.5-0.9,2.5-2.5,2.5c-1.1,0-2.6-0.3-2.6-3.6   c0-1.8,0.4-3.8,2.6-3.8c2,0,2.5,1.2,2.5,3.1v0.7H172.8z M175,72.1v-0.4c0-0.9-0.3-1.6-1.1-1.6c-0.9,0-1.2,0.9-1.2,1.8v0.1H175z"/>
	<path class="st0" d="M182.2,74.9c0,0.3,0.2,0.5,0.4,0.5c0.1,0,0.2,0,0.2,0v0.9c-0.2,0.1-0.4,0.2-0.7,0.2c-0.6,0-1.1-0.2-1.2-0.9h0   c-0.4,0.7-0.9,1-1.7,1c-1.1,0-1.8-0.6-1.8-2c0-1.6,0.7-1.9,1.6-2.2l1.1-0.3c0.5-0.1,0.8-0.3,0.8-0.9c0-0.6-0.2-1-1-1   c-0.9,0-1.1,0.7-1.1,1.3h-1.3c0-1.5,0.6-2.3,2.5-2.3c1.2,0,2.2,0.5,2.2,1.7V74.9z M180.9,72.7c-0.4,0.3-1.1,0.5-1.6,0.7   c-0.4,0.2-0.6,0.6-0.6,1.1c0,0.6,0.3,1.1,0.9,1.1c0.8,0,1.3-0.6,1.3-1.7V72.7z"/>
	<path class="st0" d="M183.7,67.1h1.4v9.3h-1.4V67.1z"/>
	<path class="st0" d="M185.9,69.4h1v-2h1.4v2h1.1v1h-1.1v4.2c0,0.5,0.2,0.7,0.6,0.7c0.2,0,0.4,0,0.5,0v1c-0.3,0.1-0.7,0.1-1.1,0.1   c-0.9,0-1.4-0.3-1.4-1.7v-4.3h-1V69.4z"/>
	<path class="st0" d="M190.1,67.1h1.4v3l0,0c0.4-0.6,1-1,1.7-1c1.1,0,1.7,0.5,1.7,1.9v5.3h-1.4v-4.8c0-0.9-0.3-1.3-1-1.3   c-0.6,0-1.1,0.5-1.1,1.4v4.7h-1.4V67.1z"/>
</g>
<g>
	<g>
		<g>
			<path class="st1" d="M38.6,12.4v8.1c0,0-0.5-2-2.5-2.6c-3.6-1.1-5.6,0.4-8.1-0.6c-2.4-1-2.5-4.9-2.5-4.9L38.6,12.4L38.6,12.4z"/>
			<path class="st1" d="M38.6,21.4c0,0,0,4.9,0,4.9s-6.8,0-8.1,0c-1.4,0-4.5-0.6-5-4.5c-0.1-1.3-0.1-5.2-0.1-5.2s0.6,3.3,2.7,4.3     C29.7,21.7,34.1,21.3,38.6,21.4L38.6,21.4z"/>
			<path class="st1" d="M26,38.7h-8.1c0,0,2-0.5,2.6-2.5c1.1-3.6-0.4-5.6,0.6-8.1c1-2.4,4.9-2.5,4.9-2.5L26,38.7L26,38.7z"/>
			<path class="st1" d="M17.1,38.7c0,0-4.9,0-4.9,0s0-6.8,0-8.1c0-1.4,0.5-4.5,4.5-5c1.3-0.1,5.2-0.1,5.2-0.1s-3.3,0.6-4.3,2.7     C16.7,29.9,17.1,34.2,17.1,38.7L17.1,38.7z"/>
			<path class="st1" d="M0,26.4v-8.1c0,0,0.5,2,2.5,2.6c3.6,1.1,5.6-0.4,8.1,0.6c2.4,1,2.5,4.9,2.5,4.9H0L0,26.4z"/>
			<path class="st1" d="M0,17.4c0,0,0-4.9,0-4.9s6.8,0,8.1,0c1.4,0,4.5,0.6,5,4.5c0.1,1.3,0.1,5.2,0.1,5.2s-0.6-3.3-2.7-4.3     C8.8,17.1,4.4,17.5,0,17.4L0,17.4z"/>
			<path class="st1" d="M12.2,0h8.1c0,0-2,0.5-2.6,2.5c-1.1,3.6,0.4,5.6-0.6,8.1c-1,2.4-4.9,2.5-4.9,2.5V0L12.2,0z"/>
			<path class="st1" d="M21.2,0c0,0,4.9,0,4.9,0s0,6.8,0,8.1c0,1.4-0.6,4.5-4.5,5c-1.3,0.1-5.2,0.1-5.2,0.1s3.3-0.6,4.3-2.7     C21.5,8.8,21.1,4.4,21.2,0L21.2,0z"/>
		</g>
	</g>
</g>
</svg>