<?xml version="1.0" standalone="no"?><!DOCTYPE svg PUBLIC "-//W3C//DTD SVG 1.1//EN" "http://www.w3.org/Graphics/SVG/1.1/DTD/svg11.dtd"><svg id="svglogo" alt="Fleet Feet Sports" viewBox="0 0 199 78" version="1.1" xmlns="http://www.w3.org/2000/svg" xmlns:xlink="http://www.w3.org/1999/xlink" style="border-bottom-color:rgb(211, 73, 40);border-left-color:rgb(211, 73, 40);border-right-color:rgb(211, 73, 40);border-top-color:rgb(211, 73, 40);color:rgb(211, 73, 40);height:78px;outline-color:rgb(211, 73, 40);text-decoration:none solid rgb(211, 73, 40);text-decoration-color:rgb(211, 73, 40);width:199px;column-rule-color:rgb(211, 73, 40);perspective-origin:99.5px 39px;-webkit-text-emphasis-color:rgb(211, 73, 40);-webkit-text-fill-color:rgb(211, 73, 40);-webkit-text-stroke-color:rgb(211, 73, 40);transform-origin:99.5px 39px;caret-color:rgb(211, 73, 40);"><g transform="matrix(1.3333333,0,0,-1.3333333,0,78.16)" style="border-bottom-color:rgb(211, 73, 40);border-left-color:rgb(211, 73, 40);border-right-color:rgb(211, 73, 40);border-top-color:rgb(211, 73, 40);color:rgb(211, 73, 40);height:auto;outline-color:rgb(211, 73, 40);overflow-x:visible;overflow-y:visible;text-decoration:none solid rgb(211, 73, 40);text-decoration-color:rgb(211, 73, 40);width:auto;column-rule-color:rgb(211, 73, 40);perspective-origin:0px 0px;-webkit-text-emphasis-color:rgb(211, 73, 40);-webkit-text-fill-color:rgb(211, 73, 40);-webkit-text-stroke-color:rgb(211, 73, 40);transform:matrix(1.33333, 0, 0, -1.33333, 0, 78.16);transform-origin:0px 0px;caret-color:rgb(211, 73, 40);"><g transform="scale(0.1)" style="border-bottom-color:rgb(211, 73, 40);border-left-color:rgb(211, 73, 40);border-right-color:rgb(211, 73, 40);border-top-color:rgb(211, 73, 40);color:rgb(211, 73, 40);height:auto;outline-color:rgb(211, 73, 40);overflow-x:visible;overflow-y:visible;text-decoration:none solid rgb(211, 73, 40);text-decoration-color:rgb(211, 73, 40);width:auto;column-rule-color:rgb(211, 73, 40);perspective-origin:0px 0px;-webkit-text-emphasis-color:rgb(211, 73, 40);-webkit-text-fill-color:rgb(211, 73, 40);-webkit-text-stroke-color:rgb(211, 73, 40);transform:matrix(0.1, 0, 0, 0.1, 0, 0);transform-origin:0px 0px;caret-color:rgb(211, 73, 40);"><path d="M35 586H167l-9-43H75l-7-28h73l-7-35H60L46 414H0l35 172v0M185 586h48L204 451h80l-9-37H149l35 172v0M328 586h140l-9-39h-94l-5-28h85l-5-34h-87l-7-34h94l-7-37H293l35 172v0M497 586h138l-7-39h-96l-4-28h85l-7-34h-87l-5-34h94l-9-37H461l36 172v0M649 586h147l-9-41h-50l-28-131h-44l27 131h-50l7 41v0M1023 586h138l-7-39h-94l-5-28h85l-7-34h-85l-7-34h94l-7-37H988l36 172v0M1192 586h138l-9-39h-94l-3-28h85l-7-34h-87l-5-34h94l-9-37h-138l35 172v0M1345 586h147l-9-41h-50l-28-131h-44l27 131h-50l7 41v0M874 586h131l-9-43h-83l-7-28h73l-7-36h-75l-12-66h-46l35 172v0M1326 276c0 0-130-7-152-12 0 0 3 38 16 55l0 12c0 0-37-33-52-43-16-11-121-65-121-65 0 0-6-2 4 17 10 19 71 93 71 93l62 2c0 0 0 12 17 12l9 4-13 5-47-1 10 20-13 15c0 0-14-32-34-38l-359-26 10-6 330 11c0 0 5 0 0-6-5-5-91-98-91-98 0 0-23-17-25-2 0 0 13 29 22 39 9 10-7 20-7 20l0 10 2 24-6 1c0 0-51-42-63-47-12-5-21-10-24-5-3 6 5 11-3 19-8 8-39-4-39-4 0 0-66-40-79-53 0 0-8-10-11-5-3 5 7 15 5 25-2 10-15 21-30 18-15-3-39-21-39-21l-27 0-5-13-28-1c-1 2-25 49-74 62-50 13-123 22-123 22 0 0-13 5 16 12 29 7 98 28 136 31 38 4 91 13 120 14l-1 6c0 0-192-4-331-58 0 0-5-25 34-20 0 0 67-6 98-6 31-1 110-19 113-64l-86-5c0 0-28-1-96-7-68-6-187-50-235-91-48-41 1-83 38-85 37-3 80-1 160 28 80 29 163 75 196 105 33 30 34 50 34 50l22 0c0 0 6 2-5-15C618 190 501 20 501 20c0 0 9-13 9-20l10 3 109 162 6 0c0 0 3-14 24-9 22 4 67 31 84 58 0 0 13 7 3-22 5-28 33-20 33-20 0 0 38 10 66 46l16 2c0 0 59 39 86 67 0 0 8-6 3-30 0 0-53-45-46-75 4-11 58 27 58 27l8 2c0 0 2-23 13-26 11-3 52 18 52 18 0 0 103 63 130 90l5-4-22-32c0 0-21-7-33-12-12-5-50-33-51-45-1-12 14-20 35-19 21 0 50 11 72 72 0 0 108 18 157 17zM555 172C500 127 412 96 412 96c0 0-115-51-179-31-64 20-25 52 34 83 59 31 168 56 232 65 64 9 99 7 99 7 0 0 12-3-44-48zm158 48c-35-40-50-26-50-26-10 43 65 59 65 59 0 0 8-4-16-33zm110 4-24-19-9 0-3 4 0 15 43 36 1-7c0 0-4 1-4-10 0-11 6-12 6-12l1-5zm277-22c-6 8 23 30 25 26 3-8-19-33-25-26M1180 183c-5 0-10 2-14 6-4 4-6 8-6 14 0 5 2 10 6 14 4 4 8 6 14 6 5 0 10-2 14-6 4-4 6-8 6-14 0-5-2-10-6-14-4-4-8-6-14-6zm0 3c5 0 9 2 13 6 3 3 4 7 4 10 0 4-1 7-4 10-3 4-7 6-12 6-5 0-9-2-12-6-3-3-4-7-4-10 0-4 2-8 5-11 3-3 7-5 11-5zm-7 6v21h8c5 0 7-2 7-5 0-3-1-5-4-6l6-10h-6l-5 9h-3v-9zm4 11h1c4 0 5 1 5 4 0 2-2 3-5 3h-2v-7" style="border-bottom-color:rgb(211, 73, 40);border-left-color:rgb(211, 73, 40);border-right-color:rgb(211, 73, 40);border-top-color:rgb(211, 73, 40);color:rgb(211, 73, 40);height:auto;outline-color:rgb(211, 73, 40);overflow-x:visible;overflow-y:visible;text-decoration:none solid rgb(211, 73, 40);text-decoration-color:rgb(211, 73, 40);width:auto;column-rule-color:rgb(211, 73, 40);perspective-origin:0px 0px;-webkit-text-emphasis-color:rgb(211, 73, 40);-webkit-text-fill-color:rgb(211, 73, 40);-webkit-text-stroke-color:rgb(211, 73, 40);transform-origin:0px 0px;d:path('M 35 586 H 167 l -9 -43 H 75 l -7 -28 h 73 l -7 -35 H 60 L 46 414 H 0 l 35 172 v 0 M 185 586 h 48 L 204 451 h 80 l -9 -37 H 149 l 35 172 v 0 M 328 586 h 140 l -9 -39 h -94 l -5 -28 h 85 l -5 -34 h -87 l -7 -34 h 94 l -7 -37 H 293 l 35 172 v 0 M 497 586 h 138 l -7 -39 h -96 l -4 -28 h 85 l -7 -34 h -87 l -5 -34 h 94 l -9 -37 H 461 l 36 172 v 0 M 649 586 h 147 l -9 -41 h -50 l -28 -131 h -44 l 27 131 h -50 l 7 41 v 0 M 1023 586 h 138 l -7 -39 h -94 l -5 -28 h 85 l -7 -34 h -85 l -7 -34 h 94 l -7 -37 H 988 l 36 172 v 0 M 1192 586 h 138 l -9 -39 h -94 l -3 -28 h 85 l -7 -34 h -87 l -5 -34 h 94 l -9 -37 h -138 l 35 172 v 0 M 1345 586 h 147 l -9 -41 h -50 l -28 -131 h -44 l 27 131 h -50 l 7 41 v 0 M 874 586 h 131 l -9 -43 h -83 l -7 -28 h 73 l -7 -36 h -75 l -12 -66 h -46 l 35 172 v 0 M 1326 276 c 0 0 -130 -7 -152 -12 c 0 0 3 38 16 55 l 0 12 c 0 0 -37 -33 -52 -43 c -16 -11 -121 -65 -121 -65 c 0 0 -6 -2 4 17 c 10 19 71 93 71 93 l 62 2 c 0 0 0 12 17 12 l 9 4 l -13 5 l -47 -1 l 10 20 l -13 15 c 0 0 -14 -32 -34 -38 l -359 -26 l 10 -6 l 330 11 c 0 0 5 0 0 -6 c -5 -5 -91 -98 -91 -98 c 0 0 -23 -17 -25 -2 c 0 0 13 29 22 39 c 9 10 -7 20 -7 20 l 0 10 l 2 24 l -6 1 c 0 0 -51 -42 -63 -47 c -12 -5 -21 -10 -24 -5 c -3 6 5 11 -3 19 c -8 8 -39 -4 -39 -4 c 0 0 -66 -40 -79 -53 c 0 0 -8 -10 -11 -5 c -3 5 7 15 5 25 c -2 10 -15 21 -30 18 c -15 -3 -39 -21 -39 -21 l -27 0 l -5 -13 l -28 -1 c -1 2 -25 49 -74 62 c -50 13 -123 22 -123 22 c 0 0 -13 5 16 12 c 29 7 98 28 136 31 c 38 4 91 13 120 14 l -1 6 c 0 0 -192 -4 -331 -58 c 0 0 -5 -25 34 -20 c 0 0 67 -6 98 -6 c 31 -1 110 -19 113 -64 l -86 -5 c 0 0 -28 -1 -96 -7 c -68 -6 -187 -50 -235 -91 c -48 -41 1 -83 38 -85 c 37 -3 80 -1 160 28 c 80 29 163 75 196 105 c 33 30 34 50 34 50 l 22 0 c 0 0 6 2 -5 -15 C 618 190 501 20 501 20 c 0 0 9 -13 9 -20 l 10 3 l 109 162 l 6 0 c 0 0 3 -14 24 -9 c 22 4 67 31 84 58 c 0 0 13 7 3 -22 c 5 -28 33 -20 33 -20 c 0 0 38 10 66 46 l 16 2 c 0 0 59 39 86 67 c 0 0 8 -6 3 -30 c 0 0 -53 -45 -46 -75 c 4 -11 58 27 58 27 l 8 2 c 0 0 2 -23 13 -26 c 11 -3 52 18 52 18 c 0 0 103 63 130 90 l 5 -4 l -22 -32 c 0 0 -21 -7 -33 -12 c -12 -5 -50 -33 -51 -45 c -1 -12 14 -20 35 -19 c 21 0 50 11 72 72 c 0 0 108 18 157 17 Z M 555 172 C 500 127 412 96 412 96 c 0 0 -115 -51 -179 -31 c -64 20 -25 52 34 83 c 59 31 168 56 232 65 c 64 9 99 7 99 7 c 0 0 12 -3 -44 -48 Z m 158 48 c -35 -40 -50 -26 -50 -26 c -10 43 65 59 65 59 c 0 0 8 -4 -16 -33 Z m 110 4 l -24 -19 l -9 0 l -3 4 l 0 15 l 43 36 l 1 -7 c 0 0 -4 1 -4 -10 c 0 -11 6 -12 6 -12 l 1 -5 Z m 277 -22 c -6 8 23 30 25 26 c 3 -8 -19 -33 -25 -26 M 1180 183 c -5 0 -10 2 -14 6 c -4 4 -6 8 -6 14 c 0 5 2 10 6 14 c 4 4 8 6 14 6 c 5 0 10 -2 14 -6 c 4 -4 6 -8 6 -14 c 0 -5 -2 -10 -6 -14 c -4 -4 -8 -6 -14 -6 Z m 0 3 c 5 0 9 2 13 6 c 3 3 4 7 4 10 c 0 4 -1 7 -4 10 c -3 4 -7 6 -12 6 c -5 0 -9 -2 -12 -6 c -3 -3 -4 -7 -4 -10 c 0 -4 2 -8 5 -11 c 3 -3 7 -5 11 -5 Z m -7 6 v 21 h 8 c 5 0 7 -2 7 -5 c 0 -3 -1 -5 -4 -6 l 6 -10 h -6 l -5 9 h -3 v -9 Z m 4 11 h 1 c 4 0 5 1 5 4 c 0 2 -2 3 -5 3 h -2 v -7');caret-color:rgb(211, 73, 40);"/></g></g></svg>